<?xml version="1.0" encoding="UTF-8" standalone="no"?>
<!-- Created with Inkscape (http://www.inkscape.org/) -->

<svg
   width="51.056427mm"
   height="50.8974mm"
   viewBox="0 0 51.056427 50.8974"
   version="1.1"
   id="svg5"
   xml:space="preserve"
   xmlns:inkscape="http://www.inkscape.org/namespaces/inkscape"
   xmlns:sodipodi="http://sodipodi.sourceforge.net/DTD/sodipodi-0.dtd"
   xmlns="http://www.w3.org/2000/svg"
   xmlns:svg="http://www.w3.org/2000/svg"><sodipodi:namedview
     id="namedview7"
     pagecolor="#ffffff"
     bordercolor="#000000"
     borderopacity="0.25"
     inkscape:showpageshadow="2"
     inkscape:pageopacity="0.0"
     inkscape:pagecheckerboard="0"
     inkscape:deskcolor="#d1d1d1"
     inkscape:document-units="mm"
     showgrid="false" /><defs
     id="defs2" /><g
     id="g158"
     transform="matrix(0.35277776,0,0,-0.35277778,25.528209,25.528286)"
     inkscape:export-filename="PGLogoHD.png"
     inkscape:export-xdpi="497.48892"
     inkscape:export-ydpi="497.48892"><g
       id="g160"><g
         id="g162"><g
           id="g164"><path
             d="M 24.5491,14.17339 C 16.72147,27.7313 -0.6155,32.37674 -14.17339,24.5491 -27.7313,16.72147 -32.37674,-0.6155 -24.5491,-14.17339 -16.72147,-27.7313 0.6155,-32.37674 14.17339,-24.5491 22.94266,-19.48625 28.3468,-10.12613 28.3468,0 h 14.1734 c 0,-23.48355 -19.03665,-42.5202 -42.5202,-42.5202 -23.48355,0 -42.5202,19.03665 -42.5202,42.5202 0,23.48355 19.03665,42.5202 42.5202,42.5202 17.87267,0 33.84372,-11.18284 39.95612,-27.9772 L 24.5491,14.17339"
             style="fill:#999999;fill-opacity:1;fill-rule:nonzero;stroke:none"
             id="path166" /></g><g
           id="g168"><path
             d="M 0,0 V -14.17339 H 28.3468 V 0 Z"
             style="fill:#999999;fill-opacity:1;fill-rule:nonzero;stroke:none"
             id="path170" /></g><g
           id="g172"><path
             d="M -33.32358,45.8663 C -7.99243,64.26993 27.46269,58.65472 45.8663,33.32358 64.26993,7.99243 58.65472,-27.46269 33.32358,-45.8663 7.99243,-64.26993 -27.46269,-58.65472 -45.8663,-33.32358 c -14.43552,19.86907 -14.43552,46.77809 0,66.64716"
             style="fill:none;stroke:#666666;stroke-width:2.98883;stroke-linecap:round;stroke-linejoin:miter;stroke-miterlimit:10;stroke-dasharray:none;stroke-opacity:1"
             id="path174" /><path
             d="M -7.9284,-70.41803 C -46.81897,-66.03969 -74.7966,-30.96194 -70.41824,7.92862 -66.0399,46.81918 -30.96216,74.79681 7.9284,70.41846 46.81897,66.0401 74.7966,30.96236 70.41824,-7.92819 66.72006,-40.78377 40.78398,-66.71985 7.9284,-70.41803"
             style="fill:none;stroke:#666666;stroke-width:2.98883;stroke-linecap:round;stroke-linejoin:miter;stroke-miterlimit:10;stroke-dasharray:none;stroke-opacity:1"
             id="path176" /><path
             d="M 27.33163,32.57182 36.44217,43.4294"
             style="fill:none;stroke:#666666;stroke-width:2.98883;stroke-linecap:round;stroke-linejoin:miter;stroke-miterlimit:10;stroke-dasharray:none;stroke-opacity:1"
             id="path178" /><path
             d="m -36.44217,-43.4294 -9.11055,-10.85713"
             style="fill:none;stroke:#666666;stroke-width:2.98883;stroke-linecap:round;stroke-linejoin:miter;stroke-miterlimit:10;stroke-dasharray:none;stroke-opacity:1"
             id="path180" /><path
             d="M 24.5491,14.17339 C 16.72147,27.7313 -0.6155,32.37674 -14.17339,24.5491 -27.7313,16.72147 -32.37674,-0.6155 -24.5491,-14.17339 -16.72147,-27.7313 0.6155,-32.37674 14.17339,-24.5491 c 4.30807,2.48709 7.88862,6.06764 10.37571,10.37571"
             style="fill:none;stroke:#666666;stroke-width:2.98883;stroke-linecap:round;stroke-linejoin:miter;stroke-miterlimit:10;stroke-dasharray:none;stroke-opacity:1"
             id="path182" /><path
             d="M 39.95612,14.54279 C 31.92455,36.60999 7.5242,47.98747 -14.543,39.9559 -36.6102,31.92433 -47.98769,7.52399 -39.95612,-14.54321 -31.92455,-36.61041 -7.5242,-47.9879 14.543,-39.95633 31.33736,-33.84393 42.5202,-17.87288 42.5202,-2e-4"
             style="fill:none;stroke:#666666;stroke-width:2.98883;stroke-linecap:round;stroke-linejoin:miter;stroke-miterlimit:10;stroke-dasharray:none;stroke-opacity:1"
             id="path184" /><path
             d="M 0,0 H 42.5202"
             style="fill:none;stroke:#666666;stroke-width:2.98883;stroke-linecap:round;stroke-linejoin:miter;stroke-miterlimit:10;stroke-dasharray:none;stroke-opacity:1"
             id="path186" /><path
             d="M 0,0 V -14.17339"
             style="fill:none;stroke:#666666;stroke-width:2.98883;stroke-linecap:round;stroke-linejoin:miter;stroke-miterlimit:10;stroke-dasharray:none;stroke-opacity:1"
             id="path188" /><path
             d="M 0,-14.17339 H 24.5491"
             style="fill:none;stroke:#666666;stroke-width:2.98883;stroke-linecap:round;stroke-linejoin:miter;stroke-miterlimit:10;stroke-dasharray:none;stroke-opacity:1"
             id="path190" /><path
             d="m 24.5491,14.17339 15.40702,0.3694"
             style="fill:none;stroke:#666666;stroke-width:2.98883;stroke-linecap:round;stroke-linejoin:miter;stroke-miterlimit:10;stroke-dasharray:none;stroke-opacity:1"
             id="path192" /></g></g></g></g></svg>
