<?xml version="1.0" standalone="no"?>
<!DOCTYPE svg PUBLIC "-//W3C//DTD SVG 20010904//EN"
 "http://www.w3.org/TR/2001/REC-SVG-20010904/DTD/svg10.dtd">
<svg version="1.0" xmlns="http://www.w3.org/2000/svg"
 width="700.000000pt" height="700.000000pt" viewBox="0 0 700.000000 700.000000"
 preserveAspectRatio="xMidYMid meet">
<metadata>
Created by potrace 1.14, written by Peter Selinger 2001-2017
</metadata>
<g transform="translate(0.000000,700.000000) scale(0.100000,-0.100000)"
fill="#000000" stroke="none">
<path d="M3278 6996 c-1 -2 -42 -6 -89 -10 -47 -4 -95 -8 -105 -10 -10 -2 -46
-7 -79 -12 -33 -4 -62 -8 -65 -9 -3 0 -27 -4 -55 -9 -88 -13 -326 -73 -445
-111 -434 -140 -829 -358 -1191 -658 -129 -107 -361 -343 -472 -482 -389 -485
-654 -1088 -737 -1680 -6 -44 -13 -93 -15 -110 -27 -189 -27 -681 0 -835 2
-14 7 -47 10 -75 4 -27 8 -59 9 -70 2 -11 6 -33 9 -50 4 -16 9 -46 12 -65 14
-85 71 -297 116 -433 355 -1058 1172 -1873 2229 -2224 96 -32 218 -66 280 -79
14 -3 41 -9 60 -14 40 -10 68 -16 160 -30 36 -6 76 -13 90 -15 89 -17 132 -16
151 1 26 24 25 70 -3 88 -13 8 -45 17 -73 19 -100 10 -289 47 -442 87 -353 94
-686 243 -988 443 -119 79 -185 127 -252 182 l-24 20 23 25 c13 14 93 108 177
210 85 102 157 188 161 193 3 4 36 -15 72 -42 319 -242 742 -438 1093 -507 11
-2 31 -6 45 -9 72 -15 204 -35 270 -42 146 -15 572 -8 676 11 10 2 39 7 64 11
25 4 54 9 65 11 11 2 34 7 50 10 53 9 218 53 295 78 695 224 1289 724 1624
1367 174 332 274 663 314 1039 15 139 7 567 -12 667 -3 11 -8 43 -11 70 -37
255 -147 585 -281 843 -194 371 -455 684 -784 937 -319 245 -673 413 -1070
507 -58 14 -121 27 -140 30 -19 3 -46 8 -60 10 -209 38 -608 43 -815 11 -16
-3 -47 -7 -68 -10 -175 -24 -458 -106 -657 -190 -231 -98 -560 -297 -573 -347
-7 -26 7 -54 33 -68 24 -13 32 -9 150 70 332 222 707 365 1110 425 97 15 202
20 385 20 243 0 330 -8 520 -46 149 -30 376 -96 459 -133 17 -8 65 -29 106
-46 122 -51 256 -125 405 -225 143 -96 185 -128 185 -140 0 -7 -284 -350 -333
-402 l-30 -32 -41 30 c-81 62 -204 139 -297 187 -333 172 -674 250 -1042 238
-559 -18 -1078 -248 -1462 -647 -166 -173 -279 -335 -385 -554 -75 -154 -93
-202 -146 -400 -25 -95 -29 -112 -39 -185 -3 -25 -8 -52 -10 -60 -14 -57 -22
-377 -11 -465 2 -16 7 -56 10 -88 41 -359 212 -763 451 -1062 339 -425 875
-722 1411 -782 89 -10 398 -10 489 0 217 24 476 101 690 207 122 59 283 158
355 217 172 139 290 260 428 438 4 6 34 51 66 100 134 207 250 494 295 730 30
160 30 160 37 280 3 61 7 116 9 123 6 16 -13 64 -28 74 -7 4 -486 8 -1064 8
-1031 0 -1053 0 -1073 -20 -18 -18 -19 -35 -19 -387 0 -323 2 -370 16 -385 15
-17 52 -18 570 -18 304 0 553 -3 553 -6 0 -15 -118 -149 -188 -215 -176 -164
-395 -276 -643 -328 -76 -15 -126 -19 -264 -16 -180 2 -194 4 -320 37 -230 61
-420 171 -590 342 -137 138 -221 261 -290 426 -126 299 -134 653 -23 959 130
359 421 654 775 787 79 30 197 61 271 71 110 15 347 9 442 -11 14 -3 39 -8 55
-12 69 -13 211 -67 303 -114 123 -63 247 -156 337 -252 89 -95 97 -105 157
-197 27 -42 55 -79 61 -83 11 -7 136 -6 626 7 246 6 246 6 146 228 -103 229
-240 430 -416 612 l-107 110 25 30 c84 99 112 133 213 255 62 74 116 139 121
144 10 11 216 -193 306 -304 172 -212 312 -446 417 -697 24 -58 94 -261 101
-293 2 -8 13 -55 25 -105 30 -124 49 -239 66 -395 14 -141 7 -430 -16 -585 -5
-33 -12 -78 -15 -100 -11 -78 -36 -186 -76 -324 -55 -190 -162 -435 -267 -611
-41 -67 -177 -268 -191 -280 -3 -3 -26 -30 -51 -60 -304 -373 -758 -684 -1230
-839 -73 -25 -237 -69 -284 -77 -17 -2 -38 -7 -46 -9 -8 -2 -33 -6 -55 -10
-22 -3 -67 -10 -100 -15 -221 -33 -538 -29 -780 11 -1231 202 -2159 1209
-2261 2454 -7 82 -7 376 0 430 2 17 7 59 11 95 21 184 54 339 109 510 81 251
173 443 327 681 38 58 69 115 69 126 0 42 -58 68 -92 41 -36 -28 -180 -263
-263 -428 -111 -220 -216 -556 -250 -795 -4 -22 -8 -47 -10 -55 -27 -100 -26
-661 0 -785 2 -11 7 -36 10 -55 2 -19 7 -46 10 -60 2 -14 7 -38 11 -55 81
-404 264 -810 512 -1137 103 -135 133 -170 267 -304 l121 -120 -179 -215 c-99
-118 -183 -215 -187 -217 -11 -4 -265 251 -351 353 -209 247 -408 566 -526
839 -67 157 -149 393 -179 515 -21 89 -46 207 -54 256 -6 33 -12 74 -15 90
-13 80 -14 87 -30 275 -6 70 -6 389 -1 455 4 43 8 80 21 205 17 162 78 434
144 636 107 328 293 686 504 966 519 691 1267 1154 2112 1307 143 25 191 31
366 46 124 10 458 5 564 -10 17 -2 68 -9 115 -15 47 -6 96 -13 110 -16 70 -12
92 -16 175 -34 182 -39 423 -116 601 -193 90 -39 296 -143 359 -182 22 -13 54
-32 70 -41 114 -63 398 -278 519 -393 122 -115 226 -225 301 -315 22 -27 45
-54 50 -60 22 -24 153 -205 196 -271 150 -230 293 -526 381 -789 29 -89 83
-288 93 -347 3 -16 12 -60 19 -97 8 -37 17 -92 21 -122 4 -30 9 -63 10 -72 35
-184 34 -615 -1 -868 -7 -51 -22 -141 -28 -170 -3 -13 -8 -42 -12 -64 -8 -58
-69 -287 -103 -392 -104 -319 -262 -630 -462 -909 -411 -575 -991 -1008 -1656
-1236 -213 -73 -482 -136 -668 -155 -27 -3 -60 -12 -72 -20 -29 -18 -30 -64
-4 -88 20 -18 64 -18 166 0 17 3 39 7 50 9 112 16 346 71 470 111 44 15 85 27
90 29 6 1 19 6 30 10 11 4 72 28 135 52 939 362 1706 1175 2030 2153 40 120
110 396 125 490 4 25 9 54 11 65 2 11 7 40 10 65 3 25 7 56 10 70 19 115 26
537 12 715 -56 707 -343 1401 -811 1965 -85 101 -297 317 -411 415 -419 364
-984 642 -1543 759 -97 21 -245 44 -393 62 -49 6 -546 15 -552 10z"/>
</g>
</svg>
