<?xml version="1.0" encoding="UTF-8" standalone="no"?>
<!-- Created with Inkscape (http://www.inkscape.org/) -->

<svg
   width="50.855083mm"
   height="50.696037mm"
   viewBox="0 0 50.855084 50.696037"
   version="1.1"
   id="svg5"
   xml:space="preserve"
   inkscape:version="1.2.1 (9c6d41e, 2022-07-14)"
   sodipodi:docname="PGLogoHighContrast.svg"
   xmlns:inkscape="http://www.inkscape.org/namespaces/inkscape"
   xmlns:sodipodi="http://sodipodi.sourceforge.net/DTD/sodipodi-0.dtd"
   xmlns="http://www.w3.org/2000/svg"
   xmlns:svg="http://www.w3.org/2000/svg"><sodipodi:namedview
     id="namedview7"
     pagecolor="#ffffff"
     bordercolor="#000000"
     borderopacity="0.25"
     inkscape:showpageshadow="2"
     inkscape:pageopacity="0.0"
     inkscape:pagecheckerboard="0"
     inkscape:deskcolor="#d1d1d1"
     inkscape:document-units="mm"
     showgrid="false"
     inkscape:zoom="1.7106679"
     inkscape:cx="91.192454"
     inkscape:cy="108.1449"
     inkscape:window-width="1335"
     inkscape:window-height="828"
     inkscape:window-x="177"
     inkscape:window-y="38"
     inkscape:window-maximized="0"
     inkscape:current-layer="g176" /><defs
     id="defs2" /><g
     id="g172"
     transform="matrix(0.35277776,0,0,-0.35277778,19.628269,18.314769)"><g
       id="g174"
       transform="translate(17.828,-3.493)"><g
         id="g176"><g
           id="g180"
           transform="translate(-1.3891157,-16.669412)"><path
             d="M 24.5491,14.17339 C 16.72147,27.7313 -0.6155,32.37674 -14.17339,24.5491 -27.7313,16.72147 -32.37674,-0.6155 -24.5491,-14.17339 -16.72147,-27.7313 0.6155,-32.37674 14.17339,-24.5491 22.94266,-19.48625 28.3468,-10.12613 28.3468,0 h 14.1734 c 0,-23.48355 -19.03665,-42.5202 -42.5202,-42.5202 -23.48355,0 -42.5202,19.03665 -42.5202,42.5202 0,23.48355 19.03665,42.5202 42.5202,42.5202 17.87267,0 33.84372,-11.18284 39.95612,-27.9772 L 24.5491,14.17339"
             style="fill:#e6e6e6;fill-opacity:1;fill-rule:nonzero;stroke:none"
             id="path182" /></g><g
           id="g184"
           transform="translate(-1.3891157,-16.669412)"><path
             d="M 0,0 V -14.17339 H 28.3468 V 0 Z"
             style="fill:#e6e6e6;fill-opacity:1;fill-rule:nonzero;stroke:none"
             id="path186" /></g><g
           id="g802"
           style="stroke:#666666;stroke-width:2.41795;stroke-dasharray:none;stroke-opacity:1"><path
             d="m -34.712696,29.196888 c 25.3311503,18.40363 60.78627,12.78842 79.18988,-12.54272 18.40363,-25.33115 12.78842,-60.78627 -12.54272,-79.18988 -25.3311497,-18.40363 -60.78627,-12.78842 -79.18988,12.54272 -14.43552,19.86907 -14.43552,46.77809 0,66.64716"
             style="fill:none;stroke:#666666;stroke-width:2.41795;stroke-linecap:round;stroke-linejoin:miter;stroke-miterlimit:10;stroke-dasharray:none;stroke-opacity:1"
             id="path190" /><path
             d="m -9.3175157,-87.087442 c -38.8905703,4.37834 -66.8682003,39.45609 -62.4898403,78.34665 4.37834,38.89056 39.45608,66.86819 78.3466403,62.48984 38.8905697,-4.37836 66.8681997,-39.4561 62.4898397,-78.34665 -3.69818,-32.85558 -29.63426,-58.79166 -62.4898397,-62.48984"
             style="fill:none;stroke:#666666;stroke-width:2.41795;stroke-linecap:round;stroke-linejoin:miter;stroke-miterlimit:10;stroke-dasharray:none;stroke-opacity:1"
             id="path192" /><path
             d="m 25.942514,15.902408 9.11054,10.85758"
             style="fill:none;stroke:#666666;stroke-width:2.41795;stroke-linecap:round;stroke-linejoin:miter;stroke-miterlimit:10;stroke-dasharray:none;stroke-opacity:1"
             id="path194" /><path
             d="m -37.831286,-60.098812 -9.11055,-10.85713"
             style="fill:none;stroke:#666666;stroke-width:2.41795;stroke-linecap:round;stroke-linejoin:miter;stroke-miterlimit:10;stroke-dasharray:none;stroke-opacity:1"
             id="path196" /><path
             d="m 23.159984,-2.496022 c -7.82763,13.55791 -25.1645997,18.20335 -38.72249,10.37571 -13.55791,-7.82763 -18.20335,-25.1646 -10.37571,-38.72249 7.82763,-13.55791 25.1646003,-18.20335 38.72249,-10.37571 4.30807,2.48709 7.88862,6.06764 10.37571,10.37571"
             style="fill:none;stroke:#666666;stroke-width:2.41795;stroke-linecap:round;stroke-linejoin:miter;stroke-miterlimit:10;stroke-dasharray:none;stroke-opacity:1"
             id="path218" /><path
             d="m 38.567004,-2.126622 c -8.03157,22.0672 -32.4319197,33.44468 -54.49912,25.41311 -22.0672,-8.03157 -33.44469,-32.43191 -25.41312,-54.49911 8.03157,-22.0672 32.4319203,-33.44469 54.49912,-25.41312 16.79436,6.1124 27.9772,22.08345 27.9772,39.95613"
             style="fill:none;stroke:#666666;stroke-width:2.41795;stroke-linecap:round;stroke-linejoin:miter;stroke-miterlimit:10;stroke-dasharray:none;stroke-opacity:1"
             id="path220" /><path
             d="M -1.3891157,-16.669412 H 41.131084"
             style="fill:none;stroke:#666666;stroke-width:2.41795;stroke-linecap:round;stroke-linejoin:miter;stroke-miterlimit:10;stroke-dasharray:none;stroke-opacity:1"
             id="path222" /><path
             d="m -1.3891157,-16.669412 v -14.17339"
             style="fill:none;stroke:#666666;stroke-width:2.41795;stroke-linecap:round;stroke-linejoin:miter;stroke-miterlimit:10;stroke-dasharray:none;stroke-opacity:1"
             id="path224" /><path
             d="M -1.3891157,-30.842802 H 23.159984"
             style="fill:none;stroke:#666666;stroke-width:2.41795;stroke-linecap:round;stroke-linejoin:miter;stroke-miterlimit:10;stroke-dasharray:none;stroke-opacity:1"
             id="path226" /><path
             d="m 23.159984,-2.496022 15.40702,0.3694"
             style="fill:none;stroke:#666666;stroke-width:2.41795;stroke-linecap:round;stroke-linejoin:miter;stroke-miterlimit:10;stroke-dasharray:none;stroke-opacity:1"
             id="path228" /></g></g></g></g></svg>
