<?xml version="1.0" standalone="no"?>
<!DOCTYPE svg PUBLIC "-//W3C//DTD SVG 20010904//EN"
 "http://www.w3.org/TR/2001/REC-SVG-20010904/DTD/svg10.dtd">
<svg version="1.0" xmlns="http://www.w3.org/2000/svg"
 width="772.000000pt" height="772.000000pt" viewBox="0 0 772.000000 772.000000"
 preserveAspectRatio="xMidYMid meet">
<metadata>
Created by potrace 1.14, written by Peter Selinger 2001-2017
</metadata>
<g transform="translate(0.000000,772.000000) scale(0.100000,-0.100000)"
fill="#000000" stroke="none">
<path d="M3609 7705 c-2 -1 -40 -6 -84 -10 -84 -7 -108 -9 -190 -20 -66 -8
-107 -15 -125 -20 -8 -2 -33 -7 -55 -10 -66 -10 -75 -12 -209 -45 -49 -12 -94
-23 -100 -24 -6 -1 -16 -5 -22 -8 -6 -4 -24 -10 -40 -13 -38 -8 -58 -13 -61
-15 -2 -2 -6 -3 -10 -4 -48 -13 -241 -81 -308 -110 -200 -86 -354 -165 -570
-290 -105 -61 -392 -270 -481 -351 -6 -5 -44 -39 -84 -75 -82 -73 -310 -305
-310 -315 0 -2 -12 -16 -28 -32 -27 -28 -67 -76 -135 -163 -59 -75 -221 -319
-282 -425 -74 -128 -199 -381 -220 -445 0 -3 -9 -23 -19 -45 -38 -86 -144
-417 -162 -505 -3 -14 -12 -51 -20 -83 -8 -32 -12 -62 -9 -67 3 -6 2 -10 -3
-10 -5 0 -9 -6 -9 -12 0 -7 -3 -29 -7 -48 -23 -133 -35 -209 -41 -275 -17
-171 -20 -233 -20 -445 1 -216 6 -327 20 -441 4 -24 8 -60 10 -79 2 -19 7 -48
10 -65 3 -16 8 -46 11 -65 10 -56 12 -70 34 -170 12 -52 23 -104 26 -115 8
-40 63 -225 69 -235 3 -6 8 -22 11 -36 6 -32 37 -115 109 -289 39 -93 165
-356 176 -365 3 -3 12 -17 20 -32 12 -23 73 -126 104 -177 20 -32 90 -136 102
-151 27 -34 109 -144 118 -159 6 -9 19 -25 30 -36 11 -11 28 -31 37 -44 69
-98 427 -455 521 -520 12 -8 24 -18 27 -21 21 -27 414 -303 423 -298 1 1 22
-11 47 -27 81 -52 362 -191 490 -242 127 -52 404 -145 466 -157 10 -2 55 -13
99 -24 44 -11 98 -23 120 -28 22 -4 47 -9 55 -11 8 -2 29 -5 45 -8 17 -2 46
-6 65 -10 35 -5 69 -10 148 -21 71 -10 108 14 118 75 2 8 -5 27 -14 43 -15 25
-37 35 -95 43 -69 8 -133 17 -151 21 -12 2 -37 7 -56 10 -19 3 -42 7 -50 9 -8
2 -28 7 -45 10 -49 8 -76 14 -95 20 -10 3 -27 7 -37 9 -188 38 -530 163 -760
279 -144 72 -157 80 -338 190 -38 24 -245 169 -258 181 -6 7 -24 20 -39 30
-16 10 -28 23 -28 29 0 5 17 28 38 51 20 23 53 61 72 86 47 59 95 116 111 133
8 8 30 34 49 58 65 81 102 119 116 119 8 0 14 -3 14 -7 0 -5 17 -19 38 -33 20
-14 39 -28 42 -31 11 -14 250 -168 250 -161 0 4 4 2 8 -4 11 -18 224 -128 347
-180 102 -43 372 -137 426 -148 13 -3 33 -7 44 -10 55 -14 266 -56 310 -61 28
-4 61 -8 75 -11 126 -23 609 -23 740 0 14 3 43 7 65 10 122 16 312 54 338 67
9 6 17 8 17 5 0 -4 153 41 241 72 173 61 370 152 517 239 41 24 77 43 82 43 5
0 10 3 12 8 2 4 48 37 103 74 55 36 110 75 122 85 12 10 33 27 48 37 14 11 36
28 48 38 12 10 44 38 72 61 129 109 368 368 473 512 169 233 318 516 416 792
64 177 134 468 151 623 4 36 9 74 11 85 26 139 20 576 -11 755 -5 30 -15 94
-20 134 -3 15 -7 35 -9 45 -3 9 -8 31 -11 50 -14 82 -90 349 -115 406 -5 11
-19 47 -31 80 -32 89 -130 293 -191 396 -87 150 -91 155 -158 251 -146 208
-303 383 -491 548 -46 41 -93 82 -103 92 -11 10 -28 20 -38 24 -10 3 -18 9
-18 14 0 5 -16 18 -35 30 -20 12 -41 27 -48 33 -16 16 -111 78 -217 142 -71
43 -316 168 -385 196 -98 40 -275 102 -345 121 -19 5 -51 14 -70 19 -19 5 -46
12 -60 15 -14 3 -33 7 -42 10 -20 6 -50 12 -98 20 -46 8 -65 12 -65 14 0 2
-22 5 -105 14 -30 3 -65 8 -76 10 -44 9 -254 19 -369 18 -108 -1 -280 -9 -280
-13 0 0 -13 -2 -30 -4 -16 -1 -52 -6 -80 -10 -27 -4 -66 -9 -85 -11 -29 -4
-94 -17 -195 -39 -11 -3 -36 -8 -55 -11 -19 -4 -41 -11 -47 -17 -7 -5 -13 -7
-13 -3 0 3 -11 1 -25 -4 -27 -10 -71 -21 -92 -22 -7 -1 -13 -5 -13 -9 0 -3
-12 -9 -27 -12 -24 -4 -135 -43 -183 -64 -8 -3 -17 -7 -20 -8 -226 -85 -657
-338 -680 -401 -20 -51 39 -124 87 -107 10 3 63 36 118 73 278 186 643 352
890 405 11 3 67 16 125 29 115 27 152 34 220 42 25 2 56 7 70 9 100 16 460 23
565 10 22 -2 69 -7 105 -10 63 -6 86 -9 140 -20 13 -2 42 -7 65 -10 22 -3 67
-13 100 -21 33 -8 69 -16 80 -19 11 -2 36 -9 55 -14 19 -5 51 -14 70 -19 38
-11 123 -39 155 -51 11 -5 58 -23 105 -41 103 -40 294 -134 385 -189 37 -23
69 -41 71 -41 2 0 32 -19 65 -42 33 -24 69 -48 78 -53 10 -6 44 -30 75 -54
l56 -43 -32 -42 c-18 -22 -41 -50 -51 -61 -10 -11 -44 -51 -75 -90 -31 -38
-66 -79 -77 -91 -11 -12 -27 -30 -35 -40 -8 -11 -37 -45 -63 -76 l-49 -57 -26
17 c-15 9 -29 19 -32 23 -3 4 -50 36 -105 72 -163 106 -354 200 -530 258 -77
26 -90 30 -92 30 -2 0 -17 5 -35 10 -55 17 -227 54 -293 64 -200 29 -551 24
-720 -10 -16 -3 -43 -8 -60 -10 -25 -4 -170 -41 -240 -60 -11 -4 -24 -7 -30
-8 -5 -2 -23 -8 -40 -14 -16 -6 -61 -24 -100 -38 -38 -15 -95 -39 -125 -53
-30 -14 -57 -26 -60 -26 -3 -1 -21 -11 -41 -24 -20 -12 -39 -22 -42 -22 -4 0
-41 -21 -84 -47 -394 -238 -709 -583 -902 -986 -69 -146 -81 -173 -81 -189 0
-8 -4 -18 -9 -23 -7 -8 -39 -94 -47 -130 -4 -16 -12 -44 -33 -123 -10 -40 -20
-75 -20 -77 -1 -3 -1 -6 -2 -7 0 -2 -2 -16 -4 -33 -2 -16 -7 -46 -11 -65 -8
-37 -8 -39 -20 -140 -10 -87 -10 -397 -1 -485 30 -272 118 -571 234 -800 20
-38 43 -83 51 -100 29 -57 145 -231 209 -312 112 -144 293 -319 448 -434 33
-24 63 -48 67 -54 5 -7 8 -7 8 0 0 6 4 5 8 -2 18 -28 271 -165 417 -226 106
-44 320 -113 338 -109 4 1 16 -2 25 -7 9 -5 35 -11 57 -14 22 -4 64 -11 94
-17 171 -33 603 -36 736 -4 11 2 34 6 50 8 17 3 41 7 55 10 14 3 36 8 49 11
50 10 256 68 261 74 3 3 12 7 20 9 28 5 212 83 269 114 99 53 186 102 196 110
6 5 35 25 65 45 30 20 59 40 65 45 5 4 46 36 90 70 113 89 345 323 345 348 0
5 4 10 8 10 5 0 24 22 43 50 19 27 37 50 42 50 4 0 7 6 7 13 0 7 8 22 18 33
44 48 172 281 226 414 15 36 31 74 36 85 32 73 95 309 114 429 31 190 42 385
25 428 -6 14 -23 31 -37 37 -18 7 -399 9 -1184 8 l-1156 -2 -21 -24 c-21 -24
-21 -33 -21 -433 l0 -409 26 -24 26 -24 590 0 c325 -1 592 -2 594 -4 4 -4 -60
-84 -110 -137 -40 -42 -113 -110 -167 -155 -90 -74 -347 -209 -439 -230 -3 -1
-30 -9 -60 -18 -30 -9 -68 -19 -85 -22 -16 -2 -41 -7 -55 -10 -116 -24 -367
-23 -481 1 -13 2 -35 6 -49 8 -14 3 -37 9 -52 15 -16 6 -28 9 -28 6 0 -8 -169
54 -252 94 -86 40 -235 136 -293 186 -263 231 -424 502 -491 828 -19 92 -28
392 -14 467 4 25 11 61 14 80 7 43 43 177 55 205 5 11 22 52 37 90 41 101 131
251 204 340 32 38 166 173 205 204 101 84 266 178 395 227 41 16 77 29 80 29
3 1 25 7 50 15 25 7 54 14 65 16 11 2 29 5 40 8 11 2 45 7 75 11 30 4 66 8 80
11 58 9 273 2 341 -11 13 -3 40 -8 59 -11 121 -21 326 -101 468 -183 145 -84
344 -276 442 -429 36 -55 74 -104 85 -109 11 -5 56 -9 100 -7 44 1 206 5 360
9 381 9 417 11 438 20 24 10 46 65 37 90 -61 166 -240 512 -271 523 -5 2 -9 8
-9 14 0 8 -19 36 -63 93 -50 66 -143 170 -224 250 l-72 72 37 44 c20 24 40 46
44 47 5 2 8 10 8 18 0 8 4 14 8 14 5 0 33 30 63 68 30 37 59 72 65 77 5 6 43
49 83 98 40 48 75 87 78 87 7 0 235 -232 273 -278 19 -24 49 -59 65 -79 144
-171 332 -488 428 -723 40 -98 111 -308 121 -360 4 -19 11 -46 16 -60 5 -14
11 -38 14 -55 3 -16 7 -41 11 -55 3 -14 8 -40 11 -59 3 -18 7 -43 10 -55 2
-11 7 -48 10 -81 4 -33 8 -63 10 -67 6 -10 17 -223 17 -338 -1 -113 -10 -302
-18 -341 -3 -13 -7 -39 -10 -58 -12 -89 -19 -125 -46 -246 -33 -149 -107 -386
-123 -397 -6 -4 -8 -8 -4 -8 17 0 -103 -259 -190 -410 -52 -90 -140 -229 -152
-240 -3 -3 -37 -48 -77 -100 -143 -188 -337 -381 -532 -527 -53 -40 -100 -76
-106 -81 -21 -16 -152 -99 -185 -118 -19 -10 -37 -22 -40 -25 -5 -5 -289 -146
-325 -160 -102 -42 -254 -96 -290 -103 -5 -2 -30 -9 -55 -16 -25 -7 -50 -14
-56 -16 -12 -2 -144 -32 -179 -41 -11 -2 -36 -6 -55 -7 -19 -2 -44 -6 -55 -9
-20 -6 -44 -9 -185 -23 -145 -15 -487 -9 -615 11 -16 2 -51 7 -77 10 -57 6
-215 38 -315 64 -40 11 -73 16 -73 13 0 -4 -4 -2 -8 5 -4 6 -19 14 -33 16 -28
5 -112 32 -144 46 -11 5 -36 14 -55 21 -39 13 -48 17 -135 56 -33 15 -62 28
-65 29 -8 2 -125 62 -165 85 -19 11 -52 29 -72 41 -64 36 -235 152 -290 196
-29 24 -55 43 -58 43 -2 0 -20 15 -39 32 -18 18 -56 52 -82 75 -48 40 -192
184 -234 233 -12 14 -36 42 -53 64 -18 21 -38 44 -45 52 -7 7 -49 64 -93 126
-210 293 -359 606 -450 945 -50 187 -97 452 -84 473 3 5 3 10 -2 10 -9 0 -12
57 -14 270 -1 183 7 315 26 430 2 14 7 43 10 65 3 23 8 52 10 65 3 14 10 45
15 70 15 74 17 82 34 145 57 222 204 570 311 740 14 22 28 47 32 55 4 8 11 20
15 25 25 31 117 174 119 186 6 30 -12 69 -40 83 -52 27 -71 16 -148 -83 -13
-16 -23 -34 -23 -39 0 -5 -7 -16 -16 -23 -9 -7 -20 -22 -25 -34 -6 -11 -15
-29 -22 -40 -48 -78 -99 -170 -128 -230 -19 -38 -37 -71 -41 -73 -5 -2 -8 -7
-8 -12 0 -5 -5 -21 -12 -37 -6 -15 -11 -31 -10 -35 1 -5 -2 -8 -6 -8 -4 0 -8
-9 -9 -21 -1 -11 -8 -27 -15 -36 -6 -8 -13 -20 -15 -27 -1 -6 -25 -76 -52
-156 -47 -136 -93 -305 -107 -395 -3 -22 -7 -42 -9 -45 -2 -3 -7 -33 -10 -65
-4 -33 -9 -69 -12 -80 -28 -129 -33 -561 -9 -745 3 -19 8 -55 10 -80 3 -25 8
-56 11 -70 3 -14 8 -47 11 -75 4 -27 9 -54 12 -59 3 -5 6 -19 8 -30 7 -49 42
-183 60 -231 9 -22 15 -41 15 -42 -1 -2 -1 -4 0 -5 0 -2 2 -10 4 -18 28 -118
246 -604 278 -618 4 -2 7 -8 7 -13 0 -11 91 -153 102 -157 4 -2 8 -8 8 -14 0
-9 127 -184 155 -214 5 -6 32 -38 60 -70 27 -32 103 -112 168 -177 l118 -118
-38 -47 c-42 -53 -81 -97 -103 -122 -8 -9 -44 -52 -80 -95 -35 -44 -69 -85
-75 -91 -5 -6 -25 -30 -44 -53 -19 -22 -39 -41 -44 -41 -10 0 -306 295 -346
345 -13 17 -38 46 -55 65 -17 20 -40 48 -51 64 -11 15 -30 40 -43 54 -12 15
-35 45 -50 67 -15 22 -30 42 -33 45 -13 12 -89 130 -89 139 0 6 -3 11 -8 11
-4 0 -12 9 -17 19 -6 11 -39 68 -73 128 -57 96 -140 260 -186 366 -9 20 -22
52 -30 70 -21 47 -113 306 -121 337 -2 8 -16 60 -30 114 -15 55 -29 111 -31
125 -3 14 -7 34 -10 43 -3 9 -7 27 -9 40 -3 13 -10 48 -16 78 -6 30 -13 73
-15 95 -2 22 -6 54 -9 70 -2 17 -7 53 -10 80 -3 28 -7 61 -10 75 -5 26 -15
244 -16 340 0 112 13 334 25 435 12 91 22 159 30 201 2 12 7 37 10 55 12 71
26 138 51 239 33 133 137 442 157 465 4 5 8 15 8 23 0 7 12 39 27 70 15 31 27
59 28 62 4 19 110 226 117 228 4 2 8 8 8 14 0 5 10 24 22 41 13 18 21 32 19
32 -4 0 34 65 68 115 9 14 23 37 30 53 8 15 18 27 23 27 4 0 8 5 8 11 0 10
173 246 220 299 12 14 45 52 73 85 29 33 106 114 173 180 109 108 145 141 247
225 17 14 39 33 49 43 10 9 20 17 23 17 3 0 15 9 27 20 12 11 40 32 62 47 23
15 43 31 46 34 10 11 157 107 255 166 128 77 263 147 390 202 55 24 118 52
140 61 48 21 336 118 367 124 13 3 23 5 23 6 0 2 -6 0 140 34 61 15 121 28
135 31 77 13 97 17 120 20 14 2 40 6 58 10 34 6 50 7 197 22 159 15 650 8 754
-12 9 -1 39 -6 66 -9 61 -8 93 -13 170 -28 33 -6 69 -12 80 -13 30 -4 191 -44
265 -66 36 -10 68 -19 72 -19 32 -4 337 -117 352 -132 6 -4 16 -8 22 -8 34 0
473 -230 482 -252 2 -4 8 -8 13 -8 22 0 291 -191 409 -290 157 -132 369 -343
470 -467 117 -143 140 -173 140 -181 0 -6 4 -12 8 -14 13 -5 153 -214 217
-323 188 -321 346 -725 420 -1075 23 -104 22 -100 30 -150 3 -25 9 -58 12 -75
3 -16 6 -41 8 -55 12 -98 17 -140 20 -175 4 -34 17 -300 17 -330 0 -51 -13
-316 -16 -335 -3 -14 -7 -54 -11 -90 -16 -160 -39 -287 -100 -540 -2 -8 -4
-17 -6 -20 -1 -3 -3 -9 -4 -15 -2 -17 -76 -248 -90 -280 -6 -16 -22 -57 -35
-90 -86 -226 -258 -547 -399 -745 -33 -47 -66 -93 -73 -103 -21 -31 -107 -138
-166 -207 -64 -76 -317 -328 -382 -382 -25 -21 -56 -47 -70 -59 -100 -84 -198
-156 -340 -247 -162 -105 -202 -128 -370 -211 -132 -66 -173 -84 -230 -106 -3
-1 -12 -5 -20 -8 -95 -40 -355 -128 -420 -141 -14 -3 -69 -16 -122 -30 -54
-14 -113 -27 -130 -30 -18 -3 -42 -7 -53 -10 -11 -2 -40 -7 -65 -11 -25 -4
-53 -9 -62 -11 -9 -1 -42 -5 -73 -9 -30 -3 -66 -11 -79 -16 -65 -30 -50 -132
21 -145 17 -3 62 -1 100 5 37 6 85 13 105 15 20 3 45 7 55 10 10 2 34 7 53 10
29 5 82 17 270 61 55 12 76 18 85 24 6 3 15 6 22 7 13 2 107 31 133 41 8 3 20
7 25 8 13 4 208 79 260 100 155 66 408 198 523 274 34 23 65 41 71 41 5 0 11
3 13 8 2 4 32 27 68 51 68 47 234 172 285 216 104 89 151 132 249 230 61 61
134 137 161 168 28 32 67 77 87 100 21 23 38 45 38 49 0 4 8 15 19 25 10 10
55 70 100 133 45 63 88 122 94 130 7 8 13 17 13 20 0 3 21 37 47 77 26 40 47
75 47 78 0 3 12 24 26 47 31 49 151 287 187 373 72 166 147 386 188 545 11 47
24 92 26 100 3 8 7 22 8 30 1 8 7 40 13 70 13 62 20 99 28 150 3 19 7 42 9 50
3 8 7 42 10 75 4 33 8 71 10 85 19 109 27 603 12 760 -7 79 -17 166 -23 200
-2 14 -7 41 -10 60 -43 279 -149 665 -234 855 -5 11 -28 63 -50 115 -49 112
-170 347 -211 408 -16 24 -29 45 -29 48 0 10 -168 257 -217 319 -144 180 -153
191 -253 298 -102 109 -229 231 -315 302 -27 22 -55 47 -64 55 -9 8 -32 26
-51 40 -19 13 -41 30 -48 37 -40 39 -332 236 -387 261 -11 5 -45 24 -75 42
-49 30 -207 112 -220 115 -3 1 -45 20 -94 43 -49 23 -92 42 -96 42 -4 0 -32
11 -61 24 -44 19 -256 93 -294 103 -5 1 -71 18 -145 38 -74 19 -151 38 -170
41 -19 3 -43 7 -52 10 -10 3 -30 7 -45 10 -16 2 -44 7 -63 10 -91 16 -127 21
-200 29 -30 3 -75 8 -100 11 -51 6 -586 15 -591 9z"/>
</g>
</svg>
